<svg xmlns="http://www.w3.org/2000/svg" viewBox="0 0 100 100">
  <defs>
    <linearGradient id="bg" x1="0" x2="0" y1="0" y2="1">
      <stop offset="0" stop-color="#22c55e"/>
      <stop offset="1" stop-color="#16a34a"/>
    </linearGradient>
  </defs>
  <rect width="100" height="100" rx="22" fill="url(#bg)"/>

  <path d="M 52 66 L 52 26" stroke="#111827" stroke-width="3" stroke-linecap="round" fill="none"/>

  <path d="M 52 28 Q 34 18 30 30 Q 38 40 52 32 Z"
        fill="#84cc16" stroke="#111827" stroke-width="2.5" stroke-linejoin="round" stroke-linecap="round"/>

  <path d="M 52 44 Q 70 34 76 46 Q 68 54 54 48 Z"
        fill="#84cc16" stroke="#111827" stroke-width="2.5" stroke-linejoin="round" stroke-linecap="round"/>

  <path d="M 10 66 Q 12 58 24 60 Q 38 66 52 62 Q 66 60 78 62 Q 88 60 92 68 Q 94 80 84 84 L 22 84 Q 8 82 6 74 Q 6 68 10 66 Z"
        fill="#f2c78e" stroke="#111827" stroke-width="3" stroke-linejoin="round"/>
</svg>
