<svg xmlns="http://www.w3.org/2000/svg" viewBox="0 0 100 100">
  <defs>
    <linearGradient id="bg" x1="0" x2="0" y1="0" y2="1">
      <stop offset="0" stop-color="#22c55e"/>
      <stop offset="1" stop-color="#16a34a"/>
    </linearGradient>
  </defs>
  <rect width="100" height="100" rx="22" fill="url(#bg)"/>

  <g transform="translate(14 14) scale(3)"
     fill="none"
     stroke="white"
     stroke-width="2"
     stroke-linecap="round"
     stroke-linejoin="round">
    <path d="M14 9.536V7a4 4 0 0 1 4-4h1.5a.5.5 0 0 1 .5.5V5a4 4 0 0 1-4 4 4 4 0 0 0-4 4c0 2 1 3 1 5a5 5 0 0 1-1 3"/>
    <path d="M4 9a5 5 0 0 1 8 4 5 5 0 0 1-8-4"/>
    <path d="M5 21h14"/>
  </g>
</svg>
